<svg xmlns="http://www.w3.org/2000/svg" version="1.1" xmlns:xlink="http://www.w3.org/1999/xlink" xmlns:svgjs="http://svgjs.com/svgjs" width="1440" height="560" preserveAspectRatio="none" viewBox="0 0 1440 560"><g mask="url(&quot;#SvgjsMask1332&quot;)" fill="none"><rect width="1440" height="560" x="0" y="0" fill="url(#SvgjsLinearGradient1333)"></rect><path d="M546 489L689 346" stroke-width="10" stroke="url(#SvgjsLinearGradient1334)" stroke-linecap="round" class="BottomLeft"></path><path d="M802 25L1068 -241" stroke-width="8" stroke="url(#SvgjsLinearGradient1334)" stroke-linecap="round" class="BottomLeft"></path><path d="M347 70L152 265" stroke-width="6" stroke="url(#SvgjsLinearGradient1334)" stroke-linecap="round" class="BottomLeft"></path><path d="M1430 383L1606 207" stroke-width="8" stroke="url(#SvgjsLinearGradient1334)" stroke-linecap="round" class="BottomLeft"></path><path d="M1305 358L1711 -48" stroke-width="10" stroke="url(#SvgjsLinearGradient1334)" stroke-linecap="round" class="BottomLeft"></path><path d="M341 28L-72 441" stroke-width="6" stroke="url(#SvgjsLinearGradient1334)" stroke-linecap="round" class="BottomLeft"></path><path d="M941 96L752 285" stroke-width="10" stroke="url(#SvgjsLinearGradient1334)" stroke-linecap="round" class="BottomLeft"></path><path d="M476 188L63 601" stroke-width="10" stroke="url(#SvgjsLinearGradient1334)" stroke-linecap="round" class="BottomLeft"></path><path d="M1059 435L868 626" stroke-width="8" stroke="url(#SvgjsLinearGradient1334)" stroke-linecap="round" class="BottomLeft"></path><path d="M1253 86L1653 -314" stroke-width="8" stroke="url(#SvgjsLinearGradient1335)" stroke-linecap="round" class="TopRight"></path><path d="M1317 498L1634 181" stroke-width="6" stroke="url(#SvgjsLinearGradient1335)" stroke-linecap="round" class="TopRight"></path><path d="M119 278L-181 578" stroke-width="8" stroke="url(#SvgjsLinearGradient1335)" stroke-linecap="round" class="TopRight"></path><path d="M632 16L873 -225" stroke-width="8" stroke="url(#SvgjsLinearGradient1335)" stroke-linecap="round" class="TopRight"></path><path d="M699 301L496 504" stroke-width="10" stroke="url(#SvgjsLinearGradient1334)" stroke-linecap="round" class="BottomLeft"></path><path d="M726 476L582 620" stroke-width="6" stroke="url(#SvgjsLinearGradient1335)" stroke-linecap="round" class="TopRight"></path><path d="M406 214L774 -154" stroke-width="6" stroke="url(#SvgjsLinearGradient1335)" stroke-linecap="round" class="TopRight"></path><path d="M191 523L417 297" stroke-width="6" stroke="url(#SvgjsLinearGradient1335)" stroke-linecap="round" class="TopRight"></path><path d="M1439 490L1856 73" stroke-width="8" stroke="url(#SvgjsLinearGradient1335)" stroke-linecap="round" class="TopRight"></path><path d="M1205 60L959 306" stroke-width="10" stroke="url(#SvgjsLinearGradient1334)" stroke-linecap="round" class="BottomLeft"></path><path d="M1249 252L1515 -14" stroke-width="6" stroke="url(#SvgjsLinearGradient1334)" stroke-linecap="round" class="BottomLeft"></path><path d="M997 222L672 547" stroke-width="8" stroke="url(#SvgjsLinearGradient1334)" stroke-linecap="round" class="BottomLeft"></path><path d="M574 259L927 -94" stroke-width="10" stroke="url(#SvgjsLinearGradient1335)" stroke-linecap="round" class="TopRight"></path><path d="M505 61L124 442" stroke-width="10" stroke="url(#SvgjsLinearGradient1335)" stroke-linecap="round" class="TopRight"></path><path d="M543 373L763 153" stroke-width="10" stroke="url(#SvgjsLinearGradient1334)" stroke-linecap="round" class="BottomLeft"></path><path d="M1057 426L1267 216" stroke-width="10" stroke="url(#SvgjsLinearGradient1335)" stroke-linecap="round" class="TopRight"></path><path d="M255 232L520 -33" stroke-width="8" stroke="url(#SvgjsLinearGradient1335)" stroke-linecap="round" class="TopRight"></path><path d="M417 382L698 101" stroke-width="6" stroke="url(#SvgjsLinearGradient1335)" stroke-linecap="round" class="TopRight"></path><path d="M720 235L518 437" stroke-width="8" stroke="url(#SvgjsLinearGradient1335)" stroke-linecap="round" class="TopRight"></path><path d="M743 314L351 706" stroke-width="8" stroke="url(#SvgjsLinearGradient1334)" stroke-linecap="round" class="BottomLeft"></path><path d="M956 130L1330 -244" stroke-width="6" stroke="url(#SvgjsLinearGradient1335)" stroke-linecap="round" class="TopRight"></path><path d="M166 492L519 139" stroke-width="10" stroke="url(#SvgjsLinearGradient1335)" stroke-linecap="round" class="TopRight"></path><path d="M379 299L193 485" stroke-width="10" stroke="url(#SvgjsLinearGradient1335)" stroke-linecap="round" class="TopRight"></path><path d="M1254 277L1557 -26" stroke-width="8" stroke="url(#SvgjsLinearGradient1334)" stroke-linecap="round" class="BottomLeft"></path><path d="M1266 538L946 858" stroke-width="8" stroke="url(#SvgjsLinearGradient1334)" stroke-linecap="round" class="BottomLeft"></path><path d="M484 59L232 311" stroke-width="6" stroke="url(#SvgjsLinearGradient1335)" stroke-linecap="round" class="TopRight"></path><path d="M810 510L1213 107" stroke-width="10" stroke="url(#SvgjsLinearGradient1335)" stroke-linecap="round" class="TopRight"></path><path d="M364 458L560 262" stroke-width="6" stroke="url(#SvgjsLinearGradient1334)" stroke-linecap="round" class="BottomLeft"></path><path d="M208 364L524 48" stroke-width="10" stroke="url(#SvgjsLinearGradient1334)" stroke-linecap="round" class="BottomLeft"></path><path d="M815 276L978 113" stroke-width="8" stroke="url(#SvgjsLinearGradient1335)" stroke-linecap="round" class="TopRight"></path></g><defs><mask id="SvgjsMask1332"><rect width="1440" height="560" fill="#ffffff"></rect></mask><linearGradient x1="15.28%" y1="-39.29%" x2="84.72%" y2="139.29%" gradientUnits="userSpaceOnUse" id="SvgjsLinearGradient1333"><stop stop-color="#0e2a47" offset="0"></stop><stop stop-color="rgba(11, 33, 61, 1)" offset="1"></stop></linearGradient><linearGradient x1="100%" y1="0%" x2="0%" y2="100%" id="SvgjsLinearGradient1334"><stop stop-color="rgba(82, 134, 190, 0)" offset="0"></stop><stop stop-color="rgba(82, 134, 190, 1)" offset="1"></stop></linearGradient><linearGradient x1="0%" y1="100%" x2="100%" y2="0%" id="SvgjsLinearGradient1335"><stop stop-color="rgba(82, 134, 190, 0)" offset="0"></stop><stop stop-color="rgba(82, 134, 190, 1)" offset="1"></stop></linearGradient></defs></svg>